<svg width="63" height="62" viewBox="0 0 63 62" fill="none" xmlns="http://www.w3.org/2000/svg">
<path fill-rule="evenodd" clip-rule="evenodd" d="M2 31C2 14.9837 14.9837 2 31 2C44.2401 2 55.4102 10.8737 58.8828 23H60.9218C60.9217 22.9121 60.91 22.8228 60.8855 22.7339C57.2679 9.62682 45.2595 0 31 0C13.8792 0 0 13.8792 0 31C0 48.1208 13.8792 62 31 62C45.2595 62 57.2679 52.3732 60.8855 39.266C60.91 39.1772 60.9217 39.0879 60.9218 39H58.8828C55.4102 51.1263 44.2401 60 31 60C14.9837 60 2 47.0163 2 31Z" fill="#5AD4A1"/>
<circle cx="60" cy="31" r="3" fill="#5AD4A1"/>
</svg>
