<svg width="7" height="8" viewBox="0 0 7 8" fill="none" xmlns="http://www.w3.org/2000/svg">
<path d="M2.32113 5.61127C2.26103 5.61127 2.20845 5.59249 2.16338 5.55493C2.11831 5.50986 2.09577 5.45728 2.09577 5.39718V5.13803C2.14836 4.82254 2.26479 4.54084 2.44507 4.29296C2.63286 4.04507 2.88826 3.76338 3.21127 3.44789C3.45164 3.20751 3.63192 3.01221 3.75211 2.86197C3.8723 2.70423 3.93615 2.54648 3.94366 2.38873C3.9662 2.15587 3.88732 1.97183 3.70704 1.83662C3.53427 1.6939 3.32394 1.62253 3.07606 1.62253C2.49014 1.62253 2.12958 1.90423 1.99437 2.46761C1.93427 2.64789 1.81784 2.73803 1.64507 2.73803H0.270422C0.187793 2.73803 0.120188 2.71174 0.0676056 2.65915C0.0225352 2.59906 0 2.52394 0 2.4338C0.0150235 2.02066 0.146479 1.63005 0.394366 1.26197C0.642253 0.886385 1.00657 0.58216 1.48732 0.349296C1.96807 0.116432 2.54272 0 3.21127 0C3.89484 0 4.4507 0.10892 4.87887 0.32676C5.30704 0.537089 5.61127 0.8 5.79155 1.11549C5.97934 1.42347 6.07324 1.73897 6.07324 2.06197C6.07324 2.43005 5.98685 2.75305 5.81408 3.03099C5.64883 3.30892 5.40094 3.62817 5.07042 3.98873C4.86761 4.20657 4.7061 4.39061 4.58592 4.54084C4.47324 4.69108 4.38685 4.84883 4.32676 5.01408C4.30423 5.08169 4.27793 5.1831 4.24789 5.31831C4.18779 5.42347 4.13521 5.49859 4.09014 5.54366C4.04507 5.58873 3.98122 5.61127 3.89859 5.61127H2.32113ZM2.34366 8C2.26103 8 2.19343 7.97371 2.14084 7.92113C2.08826 7.86855 2.06197 7.80094 2.06197 7.71831V6.4338C2.06197 6.35117 2.08826 6.28357 2.14084 6.23099C2.19343 6.1784 2.26103 6.15211 2.34366 6.15211H3.78592C3.86854 6.15211 3.93615 6.1784 3.98873 6.23099C4.04883 6.28357 4.07887 6.35117 4.07887 6.4338V7.71831C4.07887 7.80094 4.04883 7.86855 3.98873 7.92113C3.93615 7.97371 3.86854 8 3.78592 8H2.34366Z" fill="#BBC2C9"/>
</svg>
