<svg width="258" height="120" viewBox="0 0 258 120" fill="none" xmlns="http://www.w3.org/2000/svg">
<path d="M148.717 94.5603C150.757 94.5603 152.612 95.0857 154.281 96.1366C155.95 97.1875 157.248 98.6556 158.175 100.541C159.133 102.396 159.613 104.497 159.613 106.846C159.613 109.164 159.133 111.282 158.175 113.198C157.248 115.083 155.95 116.567 154.281 117.649C152.643 118.731 150.804 119.271 148.764 119.271C147.002 119.271 145.364 118.839 143.849 117.973C142.366 117.077 141.16 115.902 140.233 114.45V117.51C140.233 117.911 140.094 118.251 139.816 118.53C139.569 118.808 139.244 118.947 138.842 118.947C138.44 118.947 138.1 118.808 137.822 118.53C137.575 118.251 137.451 117.911 137.451 117.51V85.9369C137.451 85.5351 137.575 85.2105 137.822 84.9633C138.1 84.6851 138.44 84.546 138.842 84.546C139.244 84.546 139.569 84.6851 139.816 84.9633C140.094 85.2105 140.233 85.5351 140.233 85.9369V99.6138C141.068 98.0993 142.242 96.8784 143.757 95.9511C145.271 95.0239 146.925 94.5603 148.717 94.5603ZM148.486 116.675C150.093 116.675 151.53 116.242 152.797 115.377C154.095 114.512 155.1 113.337 155.811 111.853C156.553 110.339 156.924 108.67 156.924 106.846C156.924 104.992 156.553 103.338 155.811 101.886C155.1 100.402 154.095 99.2429 152.797 98.4084C151.53 97.5738 150.093 97.1566 148.486 97.1566C146.847 97.1566 145.379 97.5738 144.081 98.4084C142.783 99.212 141.778 100.356 141.068 101.839C140.357 103.323 140.001 104.992 140.001 106.846C140.001 108.701 140.357 110.385 141.068 111.9C141.809 113.383 142.814 114.558 144.081 115.423C145.379 116.258 146.847 116.675 148.486 116.675Z" fill="#554B60"/>
<path d="M176.422 94.5603C177.04 94.5603 177.596 94.6839 178.091 94.9312C178.585 95.1784 178.833 95.5493 178.833 96.0439C178.833 96.4766 178.709 96.832 178.462 97.1102C178.214 97.3575 177.921 97.4811 177.581 97.4811C177.426 97.4811 177.117 97.4038 176.654 97.2493C176.221 97.0948 175.804 97.0175 175.402 97.0175C174.258 97.0175 173.115 97.4657 171.971 98.362C170.858 99.2274 169.931 100.356 169.189 101.746C168.478 103.137 168.123 104.544 168.123 105.965V117.417C168.123 117.819 167.984 118.159 167.706 118.437C167.458 118.684 167.134 118.808 166.732 118.808C166.33 118.808 165.99 118.684 165.712 118.437C165.465 118.159 165.341 117.819 165.341 117.417V96.6466C165.341 96.2448 165.465 95.9202 165.712 95.673C165.99 95.3948 166.33 95.2557 166.732 95.2557C167.134 95.2557 167.458 95.3948 167.706 95.673C167.984 95.9202 168.123 96.2448 168.123 96.6466V100.726C168.834 98.9647 169.9 97.512 171.322 96.3684C172.775 95.1939 174.475 94.5912 176.422 94.5603Z" fill="#554B60"/>
<path d="M201.877 95.1166C202.279 95.1166 202.603 95.2557 202.851 95.5339C203.129 95.8121 203.268 96.1521 203.268 96.5539V117.417C203.268 117.819 203.129 118.159 202.851 118.437C202.603 118.684 202.279 118.808 201.877 118.808C201.475 118.808 201.135 118.684 200.857 118.437C200.61 118.159 200.486 117.819 200.486 117.417V114.311C199.713 115.702 198.554 116.876 197.009 117.834C195.463 118.792 193.779 119.271 191.955 119.271C189.885 119.271 188.015 118.731 186.346 117.649C184.707 116.567 183.409 115.083 182.451 113.198C181.524 111.313 181.06 109.195 181.06 106.846C181.06 104.497 181.539 102.396 182.497 100.541C183.456 98.6556 184.754 97.1875 186.392 96.1366C188.061 95.0857 189.9 94.5603 191.909 94.5603C193.764 94.5603 195.463 95.0084 197.009 95.9048C198.554 96.8011 199.713 97.9756 200.486 99.4283V96.5539C200.486 96.1521 200.61 95.8121 200.857 95.5339C201.135 95.2557 201.475 95.1166 201.877 95.1166ZM192.234 116.675C193.841 116.675 195.278 116.258 196.545 115.423C197.843 114.558 198.848 113.383 199.559 111.9C200.301 110.385 200.672 108.701 200.672 106.846C200.672 105.054 200.301 103.415 199.559 101.932C198.848 100.448 197.843 99.2892 196.545 98.4547C195.278 97.5893 193.841 97.1566 192.234 97.1566C190.626 97.1566 189.174 97.5738 187.875 98.4084C186.608 99.2429 185.604 100.402 184.862 101.886C184.151 103.338 183.796 104.992 183.796 106.846C183.796 108.701 184.151 110.385 184.862 111.9C185.573 113.383 186.562 114.558 187.829 115.423C189.127 116.258 190.595 116.675 192.234 116.675Z" fill="#554B60"/>
<path d="M221.7 94.5603C224.574 94.5603 226.676 95.4103 228.005 97.1102C229.365 98.7793 230.045 101.005 230.045 103.786V117.417C230.045 117.819 229.906 118.159 229.628 118.437C229.35 118.684 229.025 118.808 228.654 118.808C228.252 118.808 227.912 118.684 227.634 118.437C227.387 118.159 227.263 117.819 227.263 117.417V103.925C227.263 101.916 226.753 100.294 225.733 99.0574C224.744 97.7902 223.199 97.1566 221.097 97.1566C219.768 97.1566 218.501 97.4657 217.295 98.0838C216.121 98.702 215.163 99.5365 214.421 100.587C213.679 101.607 213.308 102.72 213.308 103.925V117.417C213.308 117.819 213.169 118.159 212.891 118.437C212.644 118.684 212.319 118.808 211.917 118.808C211.515 118.808 211.175 118.684 210.897 118.437C210.65 118.159 210.526 117.819 210.526 117.417V96.6466C210.526 96.2448 210.65 95.9202 210.897 95.673C211.175 95.3948 211.515 95.2557 211.917 95.2557C212.319 95.2557 212.644 95.3948 212.891 95.673C213.169 95.9202 213.308 96.2448 213.308 96.6466V99.1965C214.143 97.8675 215.333 96.7702 216.878 95.9048C218.454 95.0084 220.062 94.5603 221.7 94.5603Z" fill="#554B60"/>
<path d="M256.57 84.4996C256.972 84.4996 257.296 84.6387 257.544 84.9169C257.822 85.1642 257.961 85.4887 257.961 85.8905V117.417C257.961 117.819 257.822 118.159 257.544 118.437C257.296 118.684 256.972 118.808 256.57 118.808C256.168 118.808 255.828 118.684 255.55 118.437C255.303 118.159 255.179 117.819 255.179 117.417V114.172C254.406 115.593 253.247 116.799 251.702 117.788C250.188 118.777 248.503 119.271 246.649 119.271C244.609 119.271 242.754 118.746 241.085 117.695C239.447 116.613 238.149 115.13 237.191 113.244C236.232 111.359 235.753 109.242 235.753 106.893C235.753 104.575 236.232 102.473 237.191 100.587C238.149 98.702 239.447 97.2338 241.085 96.183C242.754 95.1012 244.593 94.5603 246.602 94.5603C248.426 94.5603 250.11 95.0239 251.656 95.9511C253.201 96.8475 254.376 98.022 255.179 99.4747V85.8905C255.179 85.4887 255.303 85.1642 255.55 84.9169C255.828 84.6387 256.168 84.4996 256.57 84.4996ZM246.927 116.675C248.534 116.675 249.971 116.258 251.238 115.423C252.537 114.589 253.541 113.43 254.252 111.946C254.994 110.432 255.365 108.747 255.365 106.893C255.365 105.069 254.994 103.415 254.252 101.932C253.541 100.448 252.537 99.2892 251.238 98.4547C249.971 97.5893 248.534 97.1566 246.927 97.1566C245.319 97.1566 243.867 97.5893 242.569 98.4547C241.301 99.2892 240.297 100.448 239.555 101.932C238.844 103.415 238.489 105.069 238.489 106.893C238.489 108.747 238.844 110.416 239.555 111.9C240.297 113.383 241.301 114.558 242.569 115.423C243.867 116.258 245.319 116.675 246.927 116.675Z" fill="#554B60"/>
<path fill-rule="evenodd" clip-rule="evenodd" d="M43.7793 92.8449C46.0312 92.8449 48.0844 93.441 49.9389 94.6331C51.7272 95.7591 53.1843 97.4149 54.1777 99.5343C55.2375 101.587 55.7673 103.906 55.7673 106.489C55.7673 109.005 55.3037 111.39 54.244 113.443C53.1843 115.496 51.7934 117.086 49.9389 118.278C48.1506 119.404 46.0974 120 43.9118 120C42.3222 120 40.7989 119.669 39.408 119.073C38.4808 118.609 37.686 118.079 36.9574 117.549C36.825 118.079 36.56 118.609 36.1626 119.007C35.5003 119.669 34.7055 120 33.7121 120C32.7186 120 31.9238 119.669 31.2615 119.007C30.5992 118.344 30.268 117.483 30.268 116.49V87.3476C30.268 86.3541 30.5992 85.5593 31.2615 84.897C31.8576 84.1685 32.7186 83.8373 33.7121 83.8373C34.7055 83.8373 35.5003 84.2347 36.1626 84.897C36.825 85.5593 37.1561 86.3541 37.1561 87.3476V95.3617C37.7522 94.8318 38.4808 94.3682 39.2755 93.9708C40.7326 93.2423 42.256 92.8449 43.7793 92.8449ZM47.4883 111.522C48.6143 110.131 49.2104 108.409 49.2104 106.356C49.2104 104.303 48.6143 102.647 47.4883 101.256C46.3624 99.9317 44.9053 99.2694 43.117 99.2694C41.2625 99.2694 39.8054 99.9317 38.6795 101.256C37.5535 102.647 36.9574 104.303 36.9574 106.356C36.9574 108.409 37.5535 110.198 38.6795 111.522C39.8716 112.847 41.2625 113.509 43.117 113.509C44.9053 113.509 46.3624 112.847 47.4883 111.522Z" fill="#554B60"/>
<path d="M127.497 112.913C127.099 112.913 126.636 112.979 126.238 113.178C125.775 113.311 125.576 113.311 125.443 113.311C125.046 113.311 124.715 113.244 124.516 113.046C124.317 112.847 124.251 112.582 124.251 112.118V100.197H126.901C127.828 100.197 128.556 99.9317 129.219 99.3356C129.815 98.7395 130.146 97.9448 130.146 97.0837C130.146 96.1565 129.815 95.3617 129.219 94.7656C128.623 94.1695 127.828 93.8384 126.901 93.8384H124.251V91.5203C124.251 90.5268 123.92 89.732 123.258 89.0697C122.595 88.4074 121.801 88.01 120.807 88.01C119.814 88.01 118.953 88.3411 118.29 89.0697C117.628 89.732 117.297 90.5268 117.297 91.5203V93.8384H115.84C114.913 93.8384 114.118 94.1695 113.522 94.7656C112.859 95.3617 112.594 96.0903 112.594 97.0175C112.594 97.9448 112.926 98.7395 113.522 99.3356C114.118 99.9317 114.913 100.263 115.84 100.263H117.297V112.383C117.297 115.298 118.025 117.218 119.549 118.212C121.006 119.073 122.728 119.536 124.781 119.536C126.039 119.536 127.165 119.205 128.225 118.609C129.351 117.881 129.947 117.02 129.947 115.894C129.947 115.033 129.682 114.37 129.219 113.84C128.556 113.046 127.894 112.913 127.497 112.913Z" fill="#554B60"/>
<path fill-rule="evenodd" clip-rule="evenodd" d="M22.1215 92.9111C21.128 92.9111 20.267 93.2422 19.6709 93.9708C19.2735 94.3682 19.0748 94.7656 18.8761 95.2292C18.1476 94.6993 17.2866 94.2357 16.2931 93.8383C14.9022 93.2422 13.4451 92.9773 11.8555 92.9773C9.66987 92.9773 7.61668 93.5734 5.82842 94.7656C4.04015 95.8915 2.58305 97.5473 1.58957 99.6005C0.529856 101.521 0 103.839 0 106.422C0 109.005 0.529856 111.324 1.58957 113.377C2.64928 115.43 4.10638 117.02 5.96088 118.212C7.81538 119.338 9.86857 119.934 12.1205 119.934C13.6438 119.934 15.1671 119.603 16.558 118.94C17.4852 118.477 18.3463 117.947 19.0086 117.351C19.1411 117.748 19.406 118.145 19.7371 118.477C20.3995 119.139 21.1942 119.47 22.1877 119.47C23.1812 119.47 23.976 119.139 24.6383 118.477C25.3006 117.814 25.6318 116.953 25.6318 115.96V96.3551C25.6318 95.3616 25.3006 94.5006 24.6383 93.8383C23.9098 93.176 23.115 92.9111 22.1215 92.9111ZM18.9424 106.422C18.9424 108.476 18.3463 110.198 17.2203 111.522C16.0944 112.847 14.6373 113.443 12.7828 113.443C10.9283 113.443 9.53741 112.781 8.34523 111.522C7.21929 110.198 6.6232 108.409 6.6232 106.356C6.6232 104.303 7.21929 102.581 8.34523 101.19C9.47118 99.8654 10.9283 99.2031 12.7165 99.2031C14.571 99.2031 15.9619 99.8654 17.1541 101.19C18.3463 102.647 18.9424 104.369 18.9424 106.422Z" fill="#554B60"/>
<path fill-rule="evenodd" clip-rule="evenodd" d="M77.7563 94.6331C75.7694 93.4409 73.5175 92.8448 71.0669 92.8448C68.6163 92.8448 66.3644 93.4409 64.3112 94.5669C62.3243 95.6928 60.6685 97.3486 59.5425 99.4018C58.3504 101.455 57.7543 103.773 57.7543 106.356C57.7543 108.939 58.3504 111.257 59.5425 113.377C60.7347 115.43 62.3243 117.02 64.3112 118.145C66.2982 119.271 68.5501 119.868 71.0669 119.868C73.5175 119.868 75.7031 119.271 77.7563 118.145C79.8095 117.02 81.3991 115.364 82.5913 113.377C83.7835 111.324 84.3133 108.939 84.3133 106.356C84.3133 103.773 83.7172 101.455 82.5913 99.4018C81.3991 97.4149 79.7433 95.7591 77.7563 94.6331ZM77.4252 106.422C77.4252 107.813 77.094 109.072 76.4979 110.131C75.9681 111.191 75.1733 112.052 74.1798 112.582C73.2526 113.178 72.1928 113.443 71.0007 113.443C69.8085 113.443 68.7488 113.178 67.7553 112.582C66.8281 111.986 66.0333 111.125 65.4372 110.131C64.8411 109.072 64.5762 107.813 64.5762 106.422C64.5762 105.032 64.8411 103.773 65.4372 102.713C66.0333 101.587 66.8281 100.793 67.7553 100.197C68.7488 99.6005 69.8085 99.3356 71.0007 99.3356C72.1928 99.3356 73.2526 99.6005 74.1798 100.197C75.1733 100.793 75.9018 101.654 76.4979 102.713C77.1603 103.773 77.4252 105.032 77.4252 106.422Z" fill="#554B60"/>
<path d="M104.249 94.4345C104.845 93.7059 105.706 93.3748 106.7 93.3748C107.693 93.3748 108.554 93.7059 109.15 94.3682C109.813 95.0306 110.144 95.8253 110.144 96.8188V108.608C110.144 112.118 109.15 114.9 107.163 116.887C105.243 118.94 102.395 119.934 98.8844 119.934C95.3741 119.934 92.5261 118.874 90.6054 116.887C88.6847 114.9 87.6912 112.118 87.6912 108.608V96.8188C87.6912 95.8253 88.0223 95.0306 88.6847 94.3682C89.2808 93.6397 90.1418 93.3085 91.1353 93.3085C92.1287 93.3085 92.9235 93.7059 93.5858 94.3682C94.2482 95.0306 94.5793 95.8253 94.5793 96.8188V108.674C94.5793 110.396 94.9105 111.655 95.639 112.45C96.3013 113.178 97.4273 113.576 98.8844 113.576C100.408 113.576 101.467 113.178 102.196 112.45C102.925 111.655 103.256 110.396 103.256 108.674V96.8851C103.256 95.8916 103.587 95.0968 104.249 94.4345Z" fill="#554B60"/>
<path d="M89.2166 35.2372C89.2166 35.0932 89.213 34.9492 89.2058 34.8054C89.1696 34.0877 89.273 32.1026 89.9886 29.7481C90.6894 27.4424 91.8342 25.2502 93.513 23.5828C96.2081 20.9062 99.3902 17.8202 102.357 14.9702C104.09 16.5475 106.439 17.7301 109.368 17.8924C118.015 19.0778 124.599 26.4396 124.599 35.2372C124.599 44.8531 116.734 52.7488 106.908 52.7488H105.76C104.329 52.7488 101.467 53.6075 101.467 57.0423C101.467 58.4735 102.326 61.3358 105.76 61.3358H106.908C121.421 61.3358 133.186 49.6511 133.186 35.2372C133.186 21.8832 123.088 10.8717 110.061 9.3245C109.496 9.3245 109.025 9.19573 108.635 8.98151C108.352 8.82586 108.112 8.6251 107.909 8.39585C107.145 7.53384 106.908 6.26899 106.908 5.4847V1.30892C106.908 -0.778972 105.506 0.0909814 104.806 0.786948C104.634 0.948944 104.449 1.12323 104.252 1.30892C103.119 2.37664 101.595 3.82111 99.8632 5.47202L99.8499 5.4847C99.3792 5.93341 98.8933 6.39731 98.3959 6.873C94.8907 10.2249 90.813 14.162 87.462 17.4901C81.5756 23.3362 80.4544 31.7574 80.6296 35.2372C80.6296 37.6532 80.9602 39.9926 81.5788 42.2131C81.8702 43.2716 83.0662 45.3885 85.5197 45.3885C86.9955 45.3885 89.8132 44.7752 89.9886 40.9992C89.9726 40.753 89.9152 40.1601 89.8132 39.7578C89.4239 38.3139 89.2166 36.7982 89.2166 35.2372Z" fill="#E53654"/>
<path d="M93.248 56.6743C95.6192 56.6743 97.5415 54.752 97.5415 52.3808C97.5415 50.0096 95.6192 48.0873 93.248 48.0873C90.8767 48.0873 88.9545 50.0096 88.9545 52.3808C88.9545 54.752 90.8767 56.6743 93.248 56.6743Z" fill="#E53654"/>
<path d="M168.744 35.299C168.744 35.443 168.748 35.5869 168.755 35.7307C168.791 36.4484 168.688 38.4336 167.972 40.788C167.272 43.0937 166.127 45.2859 164.448 46.9533C161.753 49.6299 158.571 52.716 155.604 55.5659C153.871 53.9887 151.522 52.806 148.593 52.6437C139.946 51.4583 133.362 44.0965 133.362 35.299C133.362 25.683 141.227 17.7873 151.053 17.7873H152.201C153.632 17.7873 156.494 16.9286 156.494 13.4938C156.494 12.0627 155.635 9.20032 152.201 9.20032H151.053C136.54 9.20032 124.775 20.8851 124.775 35.299C124.775 48.653 134.873 59.6645 147.9 61.2116C148.465 61.2116 148.936 61.3404 149.326 61.5546C149.609 61.7103 149.849 61.911 150.052 62.1403C150.816 63.0023 151.053 64.2672 151.053 65.0514V69.2272C151.053 71.3151 152.455 70.4452 153.155 69.7492C153.327 69.5872 153.513 69.4129 153.709 69.2272C154.842 68.1595 156.366 66.715 158.098 65.0641L158.111 65.0514C158.582 64.6027 159.068 64.1388 159.565 63.6631C163.07 60.3112 167.148 56.3741 170.499 53.0461C176.385 47.2 177.507 38.7788 177.331 35.299C177.331 32.8829 177.001 30.5436 176.382 28.3231C176.091 27.2646 174.895 25.1476 172.441 25.1476C170.965 25.1476 168.148 25.761 167.972 29.537C167.988 29.7831 168.046 30.3761 168.148 30.7784C168.537 32.2223 168.744 33.738 168.744 35.299Z" fill="#5AD5A1"/>
<path d="M164.713 13.8618C162.342 13.8618 160.42 15.7841 160.42 18.1553C160.42 20.5266 162.342 22.4488 164.713 22.4488C167.084 22.4488 169.007 20.5266 169.007 18.1553C169.007 15.7841 167.084 13.8618 164.713 13.8618Z" fill="#5AD5A1"/>
<path d="M119.868 34.858L106.538 45.1115C104.659 46.5573 101.963 46.2057 100.517 44.3262C99.0715 42.4467 99.4231 39.751 101.303 38.3053L117.177 26.0944C117.445 25.8787 117.734 25.6989 118.038 25.556C119.182 25.0184 120.532 25.003 121.705 25.5597C122.006 25.7019 122.293 25.8803 122.558 26.094L135.815 36.2915L149.145 26.0381C151.024 24.5923 153.72 24.9439 155.165 26.8234C156.611 28.7029 156.26 31.3986 154.38 32.8444L138.506 45.0549C138.238 45.2709 137.948 45.4509 137.644 45.5939C137.062 45.8685 136.437 46.0025 135.815 46.0021C135.193 46.0025 134.568 45.8685 133.986 45.5939C133.682 45.4509 133.392 45.2709 133.124 45.0549L119.868 34.858Z" fill="#554B60"/>
</svg>
